<svg width="182" height="48" viewBox="0 0 182 48" fill="none" xmlns="http://www.w3.org/2000/svg">
<path fill-rule="evenodd" clip-rule="evenodd" d="M43.342 20.4499L35.746 16.0649V36.4359H44.626V38.4099H1.21V36.4359H5.157V23.8859L1.479 24.8059L1 22.8899L21.81 17.6869H24.89C24.5505 18.4933 24.325 19.3432 24.22 20.2119L23.743 24.1339L28.839 21.1919V36.4349H33.772V16.0649L26.178 20.4499C26.3991 18.6101 27.3023 16.9201 28.709 15.7139H24.645C25.3983 14.7077 26.3958 13.9103 27.5432 13.3971C28.6905 12.8839 29.9498 12.6718 31.202 12.7809L25.685 9.59488C26.7413 9.14273 27.8885 8.94318 29.0354 9.0121C30.1824 9.08101 31.2974 9.41649 32.292 9.99188C33.2833 10.5619 34.1282 11.3548 34.76 12.3079C35.3914 11.3548 36.236 10.5619 37.227 9.99188C38.2217 9.41648 39.337 9.081 40.4841 9.01208C41.6312 8.94316 42.7785 9.14272 43.835 9.59488L38.316 12.7809C39.5683 12.6715 40.8279 12.8835 41.9754 13.3967C43.123 13.91 44.1207 14.7075 44.874 15.7139H40.81C42.2175 16.9193 43.1214 18.609 43.343 20.4489L43.342 20.4499ZM24.892 36.4359V26.5689H18.972V36.4359H24.892V36.4359ZM14.038 28.5419C14.038 29.0653 13.8301 29.5673 13.46 29.9374C13.0899 30.3075 12.5879 30.5154 12.0645 30.5154C11.5411 30.5154 11.0391 30.3075 10.669 29.9374C10.2989 29.5673 10.091 29.0653 10.091 28.5419C10.091 28.0185 10.2989 27.5165 10.669 27.1464C11.0391 26.7763 11.5411 26.5684 12.0645 26.5684C12.5879 26.5684 13.0899 26.7763 13.46 27.1464C13.8301 27.5165 14.038 28.0185 14.038 28.5419Z" fill="#5145CD"/>
<path d="M60.267 35.642H63.985L67.087 24.7L70.213 35.64H73.931L78.573 19.064H75.139L71.966 31.354L68.485 19.064H65.69L62.233 31.354L59.059 19.064H55.626L60.267 35.64V35.642Z" fill="#5145CD"/>
<path fill-rule="evenodd" clip-rule="evenodd" d="M84.5511 35.973C88.0321 35.973 90.8271 33.25 90.8271 29.721C90.8271 26.193 88.0331 23.469 84.5511 23.469C81.0711 23.469 78.2991 26.193 78.2991 29.721C78.2991 33.25 81.0701 35.973 84.5511 35.973ZM84.5511 32.989C82.7511 32.989 81.3541 31.639 81.3541 29.721C81.3541 27.803 82.7511 26.453 84.5511 26.453C86.3751 26.453 87.7721 27.803 87.7721 29.721C87.7721 31.639 86.3751 32.989 84.5521 32.989H84.5511Z" fill="#5145CD"/>
<path d="M96.0301 23.8V25.837C96.6471 24.227 98.1381 23.564 99.6301 23.564V26.974C98.0441 26.784 96.0301 27.495 96.0301 29.982V35.642H92.9761V23.8H96.0311H96.0301ZM112.334 35.642L107.432 29.65L112.192 23.8H108.545L104.472 29.01V19.064H101.417V35.642H104.472V30.266L108.782 35.642H112.334V35.642ZM153.439 20.51C153.439 21.528 152.586 22.38 151.544 22.38C151.05 22.375 150.577 22.1765 150.227 21.8269C149.877 21.4773 149.678 21.0045 149.673 20.51C149.673 19.491 150.526 18.615 151.544 18.615C152.586 18.615 153.439 19.491 153.439 20.509V20.51ZM153.084 35.642H150.029V23.8H153.084V35.64V35.642ZM147.875 26.738V23.8H145.199V20.485L142.144 21.408V23.8H140.084V26.737H142.144V31.662C142.144 34.859 143.588 36.114 147.875 35.641V32.87C146.122 32.965 145.199 32.941 145.199 31.662V26.737H147.875V26.738ZM124.847 32.895C123.829 34.742 121.816 35.973 119.495 35.973C115.895 35.973 113.243 33.25 113.243 29.721C113.243 26.193 115.895 23.469 119.495 23.469C121.816 23.469 123.829 24.701 124.8 26.524L122.171 28.064C121.697 27.093 120.679 26.477 119.471 26.477C117.648 26.477 116.298 27.827 116.298 29.721C116.298 31.592 117.648 32.942 119.471 32.942C120.703 32.942 121.721 32.35 122.195 31.379L124.847 32.895V32.895Z" fill="#5145CD"/>
<path fill-rule="evenodd" clip-rule="evenodd" d="M135.277 25.198V23.801H138.332V35.641H135.277V34.245C134.424 35.31 133.145 35.973 131.417 35.973C128.267 35.973 125.662 33.25 125.662 29.721C125.662 26.193 128.267 23.469 131.417 23.469C133.145 23.469 134.424 24.132 135.277 25.199V25.198ZM128.717 29.721C128.717 31.711 130.114 33.061 131.985 33.061C133.88 33.061 135.277 31.711 135.277 29.721C135.277 27.732 133.88 26.382 131.985 26.382C130.114 26.382 128.717 27.732 128.717 29.722V29.721ZM161.516 35.973C164.997 35.973 167.791 33.25 167.791 29.721C167.791 26.193 164.997 23.469 161.516 23.469C158.035 23.469 155.264 26.193 155.264 29.721C155.264 33.25 158.035 35.973 161.516 35.973ZM161.516 32.989C159.716 32.989 158.319 31.639 158.319 29.721C158.319 27.803 159.716 26.453 161.516 26.453C163.339 26.453 164.736 27.803 164.736 29.721C164.736 31.64 163.339 32.989 161.516 32.989Z" fill="#5145CD"/>
<path d="M172.995 25.127C173.706 24.061 174.937 23.469 176.524 23.469C179.034 23.469 181 25.222 181 28.371V35.641H177.945V28.751C177.945 27.141 176.974 26.311 175.6 26.311C174.108 26.311 172.995 27.187 172.995 29.248V35.642H169.94V23.8H172.995V25.126V25.127Z" fill="#5145CD"/>
</svg>
