<svg width="22" height="24" viewBox="0 0 22 24" fill="none" xmlns="http://www.w3.org/2000/svg">
<path d="M2.58 21.196H16.839L16.158 18.991C16.259 19.079 22 24 22 24V2.475C21.932 1.137 20.78 0 19.352 0L2.585 0.003C1.158 0.003 0 1.142 0 2.48V18.72C0 20.131 1.156 21.196 2.58 21.196ZM13.128 5.683L13.095 5.695L13.107 5.683H13.128ZM5.497 6.952C7.33 5.618 9.02901 5.682 9.02901 5.682L9.16601 5.817C6.923 6.352 5.906 7.354 5.906 7.354C6.01 7.332 10.539 4.719 16.027 7.42C16.027 7.42 15.008 6.483 12.903 5.883L13.089 5.7C13.38 5.701 14.92 5.755 16.568 6.96C16.568 6.96 18.412 10.11 18.412 13.98C18.351 13.906 17.268 15.646 14.481 15.706C14.481 15.706 14.009 15.172 13.673 14.706C15.303 14.238 15.913 13.302 15.913 13.302C12.74 15.3 9.95901 14.988 6.632 13.638C6.601 13.638 6.587 13.624 6.571 13.608V13.602C6.555 13.587 6.541 13.572 6.51 13.572H6.45C6.246 13.438 6.11 13.372 6.11 13.372C6.11 13.372 6.719 14.308 8.28401 14.776C7.873 15.245 7.466 15.778 7.466 15.778C4.68 15.712 3.664 13.972 3.664 13.972C3.664 10.096 5.497 6.952 5.497 6.952Z" fill="#9FA6B2"/>
<path d="M13.308 12.7707C14.019 12.7707 14.598 12.1707 14.598 11.4307C14.598 10.6957 14.022 10.0957 13.308 10.0957V10.0987C12.5999 10.0987 12.0199 10.6967 12.0179 11.4367C12.0179 12.1707 12.5969 12.7707 13.308 12.7707Z" fill="#9FA6B2"/>
<path d="M8.69003 12.7707C9.40103 12.7707 9.98003 12.1707 9.98003 11.4307C9.98003 10.6957 9.40503 10.0957 8.69403 10.0957L8.69003 10.0987C7.97903 10.0987 7.40002 10.6967 7.40002 11.4367C7.40002 12.1707 7.97903 12.7707 8.69003 12.7707Z" fill="#9FA6B2"/>
</svg>
