<svg width="170" height="170" viewBox="0 0 170 170" fill="none" xmlns="http://www.w3.org/2000/svg">
<g clip-path="url(#clip0_1193_1009)">
<path opacity="0.2" d="M45.7778 29.1506C23.0395 49.7226 8.97485 80.6217 12.8201 112.317C15.9556 138.161 33.3934 151.385 51.4357 149.196C68.5024 147.125 79.5241 131.934 77.5718 115.841C75.6196 99.7502 62.9845 89.4083 48.3562 91.183C45.4305 91.5379 41.5884 92.4985 40.6719 93.1041C41.099 76.2299 54.3365 54.8317 68.7582 43.186L45.7778 29.1506ZM129.65 18.9752C107.397 39.4882 93.3338 70.3872 97.179 102.082C100.315 127.927 117.752 141.15 135.795 138.961C152.374 136.95 163.883 121.699 161.931 105.607C159.979 89.5157 146.856 79.2329 132.227 81.0077C129.301 81.3627 125.947 82.264 125.031 82.8696C125.458 65.9954 138.208 44.6564 152.629 33.0107L129.65 18.9752Z" stroke="#31C48D" stroke-width="4"/>
</g>
<defs>
<clipPath id="clip0_1193_1009">
<rect width="152" height="152" fill="white" transform="translate(0.399902 18.7065) rotate(-6.91737)"/>
</clipPath>
</defs>
</svg>
