<svg width="143" height="46" viewBox="0 0 143 46" fill="none" xmlns="http://www.w3.org/2000/svg">
<path d="M117.829 17.2676C116.765 16.1355 115.479 15.2251 114.047 14.591C112.615 13.957 111.067 13.6124 109.495 13.5778C106.115 13.4801 103.17 14.6324 100.737 17.0297C100.327 17.4289 99.9445 17.854 99.5918 18.3022C99.309 17.9422 99.0073 17.5969 98.6878 17.2676C97.6248 16.1355 96.3389 15.2252 94.9073 14.5911C93.4758 13.9571 91.928 13.6124 90.3569 13.5778C86.9789 13.4801 84.0312 14.6324 81.5957 17.0297C80.4212 18.1496 79.4918 19.4915 78.864 20.9737C78.2362 22.4559 77.9231 24.0475 77.9437 25.6517C77.9044 28.7577 79.1245 31.7525 81.3371 33.9807C82.3966 35.1077 83.6801 36.0113 85.1091 36.6363C86.538 37.2613 88.0823 37.5945 89.6475 37.6154C89.7909 37.6154 89.9318 37.6154 90.0752 37.6154C93.2713 37.6154 96.0807 36.4556 98.424 34.1611C98.8258 33.7669 99.2022 33.3486 99.5509 32.9086C99.8386 33.2777 100.146 33.6322 100.47 33.9707C101.53 35.0983 102.815 36.0023 104.245 36.6273C105.674 37.2523 107.22 37.5851 108.786 37.6054C108.929 37.6054 109.073 37.6054 109.213 37.6054C112.41 37.6054 115.219 36.4456 117.565 34.1511C120.003 31.7638 121.24 28.8906 121.24 25.5991C121.272 22.4903 120.046 19.4953 117.829 17.2676ZM94.9411 30.7017C93.4941 32.2047 91.7987 32.8735 89.7371 32.7658C88.8153 32.7447 87.9086 32.5328 87.0765 32.1443C86.2445 31.7557 85.506 31.1992 84.9096 30.5114C84.2588 29.8329 83.7524 29.0346 83.42 28.1629C83.0876 27.2911 82.9358 26.3634 82.9735 25.4338C82.9655 24.5049 83.1497 23.5839 83.515 22.7264C83.8803 21.8689 84.4192 21.0925 85.0992 20.4439C85.7368 19.7879 86.5073 19.2691 87.3614 18.9206C88.2155 18.5721 89.1345 18.4016 90.0598 18.4199H90.152C91.0525 18.4063 91.9457 18.5802 92.7722 18.93C93.5988 19.2798 94.3398 19.7976 94.9462 20.4489C96.2798 21.7755 97.0401 23.5535 97.0692 25.4138C97.1035 26.3907 96.9324 27.3642 96.5663 28.2738C96.2002 29.1834 95.647 30.0098 94.9411 30.7017ZM114.082 30.7017C112.632 32.2047 110.94 32.8735 108.878 32.7658C107.956 32.7449 107.049 32.5331 106.216 32.1445C105.384 31.756 104.645 31.1994 104.048 30.5114C103.397 29.8329 102.891 29.0346 102.558 28.1629C102.226 27.2911 102.074 26.3634 102.112 25.4338C102.104 24.5046 102.288 23.5834 102.654 22.7259C103.02 21.8683 103.559 21.092 104.24 20.4439C104.877 19.7908 105.646 19.2743 106.497 18.9272C107.349 18.5801 108.265 18.4099 109.188 18.4274H109.28C110.181 18.4135 111.074 18.5872 111.901 18.9371C112.727 19.2869 113.468 19.8049 114.074 20.4564C115.409 21.7823 116.17 23.5607 116.197 25.4213C116.232 26.396 116.062 27.3674 115.698 28.2755C115.334 29.1837 114.784 30.0093 114.082 30.7017Z" fill="#1F3C75"/>
<path d="M72.9242 8.3099H72.1405V37.7857H76.5454V11.8519C76.5447 10.9127 76.163 10.0122 75.484 9.34807C74.8051 8.68396 73.8844 8.31057 72.9242 8.3099Z" fill="#1F3C75"/>
<path d="M133.389 26.1552L138.557 19.4695C138.907 19.0171 139.121 18.4784 139.175 17.9138C139.229 17.3492 139.122 16.781 138.864 16.2728C138.607 15.7647 138.21 15.3367 137.718 15.0368C137.226 14.7369 136.658 14.5769 136.078 14.5748L127.773 25.0656V13.3098C127.772 11.976 127.229 10.6972 126.264 9.75455C125.3 8.81186 123.992 8.28235 122.628 8.28235V32.4853C122.63 33.8474 123.185 35.1532 124.17 36.1159C125.155 37.0787 126.49 37.6198 127.883 37.6204V32.9261L130.224 30.0329L136.626 37.6204C137.206 37.6158 137.773 37.4507 138.261 37.1444C138.749 36.838 139.139 36.4028 139.385 35.889C139.63 35.3753 139.723 34.8039 139.651 34.2411C139.579 33.6782 139.345 33.1468 138.977 32.7082L133.389 26.1552Z" fill="#1F3C75"/>
<path d="M67.5666 17.8563C66.5206 16.7582 65.2604 15.8761 63.8605 15.2617C62.4605 14.6474 60.949 14.3133 59.4149 14.2792C57.8319 14.1976 56.2495 14.4512 54.7759 15.0227C53.3023 15.5942 51.9722 16.4702 50.8766 17.5908C50.3862 18.0728 49.9358 18.5921 49.5295 19.1438C49.1924 18.691 48.8245 18.2608 48.4283 17.8563C47.3816 16.7584 46.121 15.8763 44.7206 15.262C43.3202 14.6477 41.8084 14.3135 40.274 14.2792C36.9755 14.1515 34.102 15.2662 31.7357 17.5908C30.5951 18.6787 29.6923 19.982 29.0822 21.4215C28.472 22.8609 28.1672 24.4067 28.1861 25.9648C28.1801 28.9524 29.344 31.8288 31.4386 34.0033C32.4637 35.1083 33.7075 35.9982 35.0946 36.6191C36.4817 37.24 37.9833 37.5789 39.5083 37.6154C39.6389 37.6154 39.7644 37.6154 39.895 37.6154C42.6861 37.6446 45.3835 36.6313 47.4372 34.7823C47.6892 35.4708 48.1523 36.0664 48.7633 36.4878C49.3743 36.9092 50.1033 37.1359 50.851 37.137H51.6346V34.9777C53.5897 36.6231 56.0681 37.5536 58.6466 37.6104C58.7772 37.6104 58.9027 37.6104 59.0333 37.6104C61.8251 37.6392 64.5232 36.626 66.578 34.7773C66.8293 35.4658 67.2918 36.0615 67.9025 36.483C68.5131 36.9045 69.2419 37.1311 69.9893 37.132H70.773V25.9423C70.8392 24.4509 70.5885 22.9623 70.0366 21.5705C69.4847 20.1787 68.6437 18.914 67.5666 17.8563ZM45.0298 31.2203C43.5188 32.7633 41.7517 33.4747 39.6261 33.382C37.6516 33.2919 36.0125 32.5178 34.6117 31.0148C33.9338 30.3172 33.4056 29.4939 33.0582 28.5935C32.7107 27.6931 32.551 26.7337 32.5885 25.772C32.5799 24.8142 32.7708 23.8648 33.1494 22.9815C33.5281 22.0983 34.0866 21.2996 34.7909 20.6343C35.4693 19.946 36.2859 19.4024 37.1894 19.0377C38.0929 18.673 39.0638 18.4951 40.041 18.5151C40.9813 18.5006 41.9141 18.681 42.7779 19.0445C43.6418 19.4081 44.4171 19.9465 45.0529 20.6243C46.4421 21.9823 47.2248 23.8233 47.2297 25.7444C47.268 26.7559 47.0926 27.7642 46.7145 28.7063C46.3364 29.6485 45.7638 30.5043 45.0324 31.2203H45.0298ZM64.1681 31.2203C63.4914 31.9546 62.6542 32.5303 61.7186 32.9046C60.7831 33.2789 59.7733 33.4421 58.7644 33.382C56.7925 33.2919 55.1509 32.5178 53.75 31.0148C53.0722 30.3172 52.544 29.4939 52.1965 28.5935C51.849 27.6931 51.6893 26.7337 51.7268 25.772C51.7182 24.8142 51.9091 23.8648 52.2877 22.9815C52.6664 22.0983 53.2249 21.2996 53.9293 20.6343C54.6074 19.9464 55.4236 19.4031 56.3267 19.0384C57.2297 18.6738 58.2 18.4956 59.1768 18.5151C60.1173 18.5015 61.0502 18.6823 61.9143 19.0458C62.7784 19.4093 63.5543 19.9472 64.1912 20.6243C65.5917 22.0492 66.372 23.9502 66.3677 25.9268C66.3634 27.9034 65.5749 29.8012 64.1681 31.2203Z" fill="#1F3C75"/>
<path d="M7.14235 11.1229V15.5868C4.88027 17.2302 3.24429 19.5657 2.49414 22.2224V6.57141C3.72739 6.57274 4.90967 7.05286 5.78123 7.90629C6.65279 8.75972 7.14235 9.91665 7.14235 11.1229Z" fill="#B05F20"/>
<path d="M15.3145 13.6029C15.1019 13.5903 14.8894 13.5853 14.6742 13.5853C15.1465 14.0112 15.5232 14.5283 15.7807 15.1039C16.0381 15.6796 16.1706 16.3012 16.1699 16.9294C16.1699 17.3761 16.1017 17.8202 15.9675 18.2471C16.1186 18.2721 16.2646 18.3022 16.4132 18.3347C18.0712 18.7164 19.5487 19.6348 20.6062 20.9409C21.6637 22.247 22.2391 23.8642 22.2391 25.5302C22.2391 27.1963 21.6637 28.8135 20.6062 30.1195C19.5487 31.4256 18.0712 32.344 16.4132 32.7257C16.2646 32.7583 16.1186 32.7883 15.9675 32.8134C16.1089 33.2527 16.1806 33.7106 16.1801 34.1711C16.1822 34.777 16.0606 35.3771 15.8222 35.9364C15.5838 36.4956 15.2336 37.0026 14.792 37.4275C15.0046 37.4275 15.2146 37.4275 15.4246 37.405C18.5449 37.2401 21.481 35.9085 23.6257 33.6857C25.7704 31.4628 26.9596 28.5187 26.9475 25.4623C26.9353 22.4059 25.7226 19.471 23.5603 17.2646C21.3979 15.0582 18.4513 13.749 15.3299 13.6079L15.3145 13.6029ZM14.687 32.9186C13.6808 32.9199 12.6846 32.7237 11.7573 32.3416C10.83 31.9595 9.99046 31.3993 9.28847 30.6942C9.18091 30.5865 9.07591 30.4763 8.97603 30.3635C8.87615 30.2508 8.78139 30.1381 8.6892 30.0204C7.7985 28.8864 7.26458 27.5234 7.1526 26.0976V24.9603C7.25791 23.5447 7.78004 22.1893 8.6559 21.0576C8.74554 20.9399 8.84029 20.8272 8.93761 20.7144C9.03493 20.6017 9.14249 20.489 9.24749 20.3813C9.95081 19.6682 10.7938 19.101 11.7262 18.7137C12.6586 18.3263 13.6612 18.1267 14.6742 18.1268C14.954 18.1278 15.2335 18.1429 15.5117 18.1719C15.7809 17.3476 15.7773 16.4612 15.5014 15.639C15.2255 14.8168 14.6914 14.1008 13.9751 13.5928C11.6112 13.7248 9.3388 14.5322 7.43943 15.9149C7.33955 15.9851 7.24223 16.0602 7.14235 16.1354L6.89906 16.3283C6.7326 16.4635 6.56869 16.6038 6.40991 16.7466C5.17373 17.8611 4.18744 19.2145 3.51343 20.721C2.83942 22.2275 2.49234 23.8545 2.49415 25.4989V26.9643H2.58634C2.937 29.7587 4.2912 32.3403 6.40735 34.2487C6.56101 34.3915 6.72235 34.5268 6.88369 34.6595C7.04504 34.7923 7.23199 34.9326 7.39589 35.0653C9.3386 36.481 11.6703 37.295 14.0903 37.4025C14.5942 37.02 15.0021 36.5302 15.283 35.9702C15.5639 35.4102 15.7105 34.7949 15.7114 34.1711C15.7125 33.73 15.6398 33.2917 15.4963 32.8735C15.2276 32.9033 14.9575 32.9184 14.687 32.9186Z" fill="#1F3C75"/>
<path d="M7.14235 25.5339V32.8634C7.14235 34.0697 6.65279 35.2266 5.78123 36.0801C4.90967 36.9335 3.72739 37.4136 2.49414 37.4149V25.5339H7.14235Z" fill="#1F3C75"/>
</svg>
