<svg width="105" height="48" viewBox="0 0 105 48" fill="none" xmlns="http://www.w3.org/2000/svg">
<path fill-rule="evenodd" clip-rule="evenodd" d="M18 4L0 10V29.5L6 31.5V37L24 43V11.5L18 13.5V4ZM8 32.167L18 35.5V15.608L22 14.275V40.225L8 35.56V32.168V32.167Z" fill="#9FA6B2"/>
<path d="M42.8999 20.45V31H47.3459V20.45H50.8759V17.058H39.3899V20.451H42.8999V20.45ZM53.1049 25.248C53.1049 29.226 55.4049 31.254 59.4809 31.254C63.3809 31.254 65.8769 29.401 65.8769 25.209V17.058H61.4309V25.053C61.4309 26.886 61.0409 27.783 59.4809 27.783C57.9009 27.783 57.5109 26.886 57.5109 25.073V17.058H53.1049V25.248Z" fill="#9FA6B2"/>
<path fill-rule="evenodd" clip-rule="evenodd" d="M68.9651 31V17.058H74.5231C78.5401 17.058 80.2561 18.852 80.2561 21.835V21.913C80.2561 24.819 78.3261 26.457 74.7181 26.457H73.3721V31H68.9651ZM74.2881 23.493H73.3721V20.353H74.3081C75.4581 20.353 76.0631 20.783 76.0631 21.855V21.933C76.0631 22.966 75.4581 23.493 74.2881 23.493Z" fill="#9FA6B2"/>
<path d="M82.563 31V17.058H86.99V27.588H92.06V31H82.563ZM94.562 17.058V31H104.78V27.607H98.969V25.521H103.337V22.421H98.969V20.451H104.468V17.058H94.562Z" fill="#9FA6B2"/>
</svg>
