<svg width="24" height="20" viewBox="0 0 24 20" fill="none" xmlns="http://www.w3.org/2000/svg">
<path d="M23.8621 2.54567C23.7025 2.3712 23.4456 2.32585 23.236 2.43508C23.0205 2.533 22.7975 2.61361 22.5692 2.67613C22.9253 2.22044 23.1942 1.70289 23.3622 1.14948C23.4362 0.87101 23.2705 0.585256 22.992 0.511249C22.8433 0.471727 22.6848 0.499852 22.5588 0.588093C21.7654 1.01741 20.9222 1.34723 20.0481 1.57004C18.2487 -0.128348 15.5078 -0.340047 13.4689 1.06187C11.8983 2.12379 11.0337 3.95913 11.2149 5.84628C7.8104 5.55617 4.67801 3.86908 2.56229 1.18602C2.4536 1.05453 2.28916 0.982142 2.11879 0.990898C1.94603 1.00127 1.7897 1.09665 1.70141 1.24549C0.983355 2.41928 0.775324 3.83519 1.1254 5.16589C1.30491 5.8496 1.61263 6.49302 2.03221 7.06193C1.84321 6.96939 1.66536 6.85561 1.50213 6.72281C1.27835 6.54129 0.9498 6.57553 0.768232 6.79931C0.692905 6.8922 0.651719 7.00813 0.65167 7.12772C0.682682 9.0582 1.74274 10.825 3.43154 11.7608C3.2037 11.7329 2.97879 11.6847 2.75951 11.6168C2.48359 11.5338 2.1926 11.6902 2.10959 11.9661C2.0734 12.0865 2.08186 12.2159 2.13342 12.3306C2.86639 13.9725 4.33175 15.1717 6.08619 15.5654C4.41466 16.5085 2.4899 16.9047 0.581773 16.6986C0.334367 16.667 0.0999719 16.8174 0.0255741 17.0555C-0.0511227 17.2917 0.0492484 17.5492 0.265594 17.6712C2.60196 19.0594 5.25979 19.8146 7.977 19.8625C10.5838 19.853 13.1298 19.0744 15.2961 17.6242C19.4314 14.8798 22.0088 9.95245 21.6499 5.5437C22.5341 4.88918 23.3011 4.08973 23.9185 3.17916C24.0454 2.97959 24.0222 2.71966 23.8621 2.54567Z" fill="#9FA6B2"/>
</svg>
