<svg width="180" height="48" viewBox="0 0 180 48" fill="none" xmlns="http://www.w3.org/2000/svg">
<path fill-rule="evenodd" clip-rule="evenodd" d="M42.342 20.45L34.746 16.065V36.436H43.626V38.41H0.21V36.436H4.157V23.886L0.479 24.806L0 22.89L20.81 17.687H23.89C23.5505 18.4935 23.325 19.3433 23.22 20.212L22.743 24.134L27.839 21.192V36.435H32.772V16.065L25.178 20.45C25.3991 18.6102 26.3023 16.9202 27.709 15.714H23.645C24.3983 14.7079 25.3958 13.9105 26.5432 13.3972C27.6905 12.884 28.9498 12.6719 30.202 12.781L24.685 9.59501C25.7413 9.14285 26.8885 8.9433 28.0354 9.01222C29.1824 9.08113 30.2974 9.41662 31.292 9.992C32.2833 10.562 33.1282 11.3549 33.76 12.308C34.3914 11.355 35.236 10.562 36.227 9.992C37.2217 9.4166 38.337 9.08112 39.4841 9.0122C40.6312 8.94329 41.7785 9.14284 42.835 9.59501L37.316 12.781C38.5683 12.6717 39.8279 12.8836 40.9754 13.3969C42.123 13.9101 43.1207 14.7076 43.874 15.714H39.81C41.2175 16.9194 42.1214 18.6092 42.343 20.449L42.342 20.45ZM23.892 36.436V26.569H17.972V36.436H23.892V36.436ZM13.038 28.542C13.038 29.0654 12.8301 29.5674 12.46 29.9375C12.0899 30.3076 11.5879 30.5155 11.0645 30.5155C10.5411 30.5155 10.0391 30.3076 9.66902 29.9375C9.29892 29.5674 9.091 29.0654 9.091 28.542C9.091 28.0186 9.29892 27.5166 9.66902 27.1465C10.0391 26.7764 10.5411 26.5685 11.0645 26.5685C11.5879 26.5685 12.0899 26.7764 12.46 27.1465C12.8301 27.5166 13.038 28.0186 13.038 28.542Z" fill="#9FA6B2"/>
<path d="M59.267 35.642H62.985L66.087 24.7L69.213 35.64H72.931L77.573 19.064H74.139L70.966 31.354L67.485 19.064H64.69L61.233 31.354L58.059 19.064H54.626L59.267 35.64V35.642Z" fill="#9FA6B2"/>
<path fill-rule="evenodd" clip-rule="evenodd" d="M83.5511 35.973C87.0321 35.973 89.8271 33.25 89.8271 29.721C89.8271 26.193 87.0331 23.469 83.5511 23.469C80.0711 23.469 77.2991 26.193 77.2991 29.721C77.2991 33.25 80.0701 35.973 83.5511 35.973ZM83.5511 32.989C81.7511 32.989 80.3541 31.639 80.3541 29.721C80.3541 27.803 81.7511 26.453 83.5511 26.453C85.3751 26.453 86.7721 27.803 86.7721 29.721C86.7721 31.639 85.3751 32.989 83.5521 32.989H83.5511Z" fill="#9FA6B2"/>
<path d="M95.0301 23.8V25.837C95.6471 24.227 97.1381 23.564 98.6301 23.564V26.974C97.0441 26.784 95.0301 27.495 95.0301 29.982V35.642H91.9761V23.8H95.0311H95.0301ZM111.334 35.642L106.432 29.65L111.192 23.8H107.545L103.472 29.01V19.064H100.417V35.642H103.472V30.266L107.782 35.642H111.334V35.642ZM152.439 20.51C152.439 21.528 151.586 22.38 150.544 22.38C150.05 22.375 149.577 22.1765 149.227 21.8269C148.877 21.4773 148.678 21.0045 148.673 20.51C148.673 19.491 149.526 18.615 150.544 18.615C151.586 18.615 152.439 19.491 152.439 20.509V20.51ZM152.084 35.642H149.029V23.8H152.084V35.64V35.642ZM146.875 26.738V23.8H144.199V20.485L141.144 21.408V23.8H139.084V26.737H141.144V31.662C141.144 34.859 142.588 36.114 146.875 35.641V32.87C145.122 32.965 144.199 32.941 144.199 31.662V26.737H146.875V26.738ZM123.847 32.895C122.829 34.742 120.816 35.973 118.495 35.973C114.895 35.973 112.243 33.25 112.243 29.721C112.243 26.193 114.895 23.469 118.495 23.469C120.816 23.469 122.829 24.701 123.8 26.524L121.171 28.064C120.697 27.093 119.679 26.477 118.471 26.477C116.648 26.477 115.298 27.827 115.298 29.721C115.298 31.592 116.648 32.942 118.471 32.942C119.703 32.942 120.721 32.35 121.195 31.379L123.847 32.895V32.895Z" fill="#9FA6B2"/>
<path fill-rule="evenodd" clip-rule="evenodd" d="M134.277 25.198V23.801H137.332V35.641H134.277V34.245C133.424 35.31 132.145 35.973 130.417 35.973C127.267 35.973 124.662 33.25 124.662 29.721C124.662 26.193 127.267 23.469 130.417 23.469C132.145 23.469 133.424 24.132 134.277 25.199V25.198ZM127.717 29.721C127.717 31.711 129.114 33.061 130.985 33.061C132.88 33.061 134.277 31.711 134.277 29.721C134.277 27.732 132.88 26.382 130.985 26.382C129.114 26.382 127.717 27.732 127.717 29.722V29.721ZM160.516 35.973C163.997 35.973 166.791 33.25 166.791 29.721C166.791 26.193 163.997 23.469 160.516 23.469C157.035 23.469 154.264 26.193 154.264 29.721C154.264 33.25 157.035 35.973 160.516 35.973ZM160.516 32.989C158.716 32.989 157.319 31.639 157.319 29.721C157.319 27.803 158.716 26.453 160.516 26.453C162.339 26.453 163.736 27.803 163.736 29.721C163.736 31.64 162.339 32.989 160.516 32.989Z" fill="#9FA6B2"/>
<path d="M171.995 25.127C172.706 24.061 173.937 23.469 175.524 23.469C178.034 23.469 180 25.222 180 28.371V35.641H176.945V28.751C176.945 27.141 175.974 26.311 174.6 26.311C173.108 26.311 171.995 27.187 171.995 29.248V35.642H168.94V23.8H171.995V25.126V25.127Z" fill="#9FA6B2"/>
</svg>
